<svg width="26" height="23" viewBox="0 0 26 23" fill="none" xmlns="http://www.w3.org/2000/svg">
<path d="M15.6084 0.916409C14.0564 -0.223864 11.9436 -0.223864 10.3916 0.916409L1.12416 7.72511C0.451398 8.21938 0.801005 9.28571 1.63582 9.28571C2.11309 9.28571 2.5 9.67262 2.5 10.1499V19.5C2.5 21.433 4.067 23 6 23H6.07143C7.96498 23 9.5 21.465 9.5 19.5714C9.5 17.6779 11.035 16.1429 12.9286 16.1429H13.0714C14.965 16.1429 16.5 17.6779 16.5 19.5714C16.5 21.465 18.035 23 19.9286 23H20C21.933 23 23.5 21.433 23.5 19.5V10.0336C23.5 9.56786 23.8848 9.19417 24.3504 9.20785C25.1605 9.23166 25.517 8.19615 24.8638 7.71628L15.6084 0.916409Z" fill="#E0E1DD"/>
</svg>
