<svg width="94" height="94" viewBox="0 0 94 94" fill="none" xmlns="http://www.w3.org/2000/svg">
<mask id="path-1-outside-1_14_4" maskUnits="userSpaceOnUse" x="0" y="0" width="94" height="94" fill="black">
<rect fill="white" width="94" height="94"/>
<path d="M85.9048 47C89.8234 47 93.0559 50.1952 92.4539 54.0672C91.4299 60.6533 88.9819 66.9675 85.2476 72.5562C80.193 80.1209 73.0088 86.0168 64.6034 89.4985C56.198 92.9801 46.9489 93.891 38.0258 92.1161C29.1027 90.3412 20.9063 85.9601 14.473 79.5269C8.03984 73.0936 3.65877 64.8972 1.88386 55.9741C0.108956 47.051 1.01993 37.8019 4.50157 29.3965C7.98322 20.9911 13.8792 13.8069 21.4438 8.75234C27.0326 5.01804 33.3468 2.5701 39.9329 1.54608C43.8049 0.944047 47.0001 4.17661 47.0001 8.09517V8.09517C47.0001 12.0137 43.785 15.1115 39.9635 15.9783C36.1875 16.8349 32.5799 18.378 29.3276 20.5512C24.0965 24.0465 20.0193 29.0145 17.6117 34.8269C15.2041 40.6394 14.5742 47.0352 15.8015 53.2057C17.0289 59.3762 20.0585 65.0441 24.5071 69.4928C28.9558 73.9415 34.6237 76.9711 40.7942 78.1984C46.9647 79.4258 53.3606 78.7959 59.173 76.3883C64.9855 73.9807 69.9535 69.9036 73.4488 64.6725C75.6219 61.4201 77.1651 57.8125 78.0216 54.0366C78.8885 50.2151 81.9863 47 85.9048 47V47Z"/>
</mask>
<g filter="url(#filter0_i_14_4)">
<path d="M85.9048 47C89.8234 47 93.0559 50.1952 92.4539 54.0672C91.4299 60.6533 88.9819 66.9675 85.2476 72.5562C80.193 80.1209 73.0088 86.0168 64.6034 89.4985C56.198 92.9801 46.9489 93.891 38.0258 92.1161C29.1027 90.3412 20.9063 85.9601 14.473 79.5269C8.03984 73.0936 3.65877 64.8972 1.88386 55.9741C0.108956 47.051 1.01993 37.8019 4.50157 29.3965C7.98322 20.9911 13.8792 13.8069 21.4438 8.75234C27.0326 5.01804 33.3468 2.5701 39.9329 1.54608C43.8049 0.944047 47.0001 4.17661 47.0001 8.09517V8.09517C47.0001 12.0137 43.785 15.1115 39.9635 15.9783C36.1875 16.8349 32.5799 18.378 29.3276 20.5512C24.0965 24.0465 20.0193 29.0145 17.6117 34.8269C15.2041 40.6394 14.5742 47.0352 15.8015 53.2057C17.0289 59.3762 20.0585 65.0441 24.5071 69.4928C28.9558 73.9415 34.6237 76.9711 40.7942 78.1984C46.9647 79.4258 53.3606 78.7959 59.173 76.3883C64.9855 73.9807 69.9535 69.9036 73.4488 64.6725C75.6219 61.4201 77.1651 57.8125 78.0216 54.0366C78.8885 50.2151 81.9863 47 85.9048 47V47Z" fill="url(#paint0_angular_14_4)"/>
</g>
<path d="M85.9048 47C89.8234 47 93.0559 50.1952 92.4539 54.0672C91.4299 60.6533 88.9819 66.9675 85.2476 72.5562C80.193 80.1209 73.0088 86.0168 64.6034 89.4985C56.198 92.9801 46.9489 93.891 38.0258 92.1161C29.1027 90.3412 20.9063 85.9601 14.473 79.5269C8.03984 73.0936 3.65877 64.8972 1.88386 55.9741C0.108956 47.051 1.01993 37.8019 4.50157 29.3965C7.98322 20.9911 13.8792 13.8069 21.4438 8.75234C27.0326 5.01804 33.3468 2.5701 39.9329 1.54608C43.8049 0.944047 47.0001 4.17661 47.0001 8.09517V8.09517C47.0001 12.0137 43.785 15.1115 39.9635 15.9783C36.1875 16.8349 32.5799 18.378 29.3276 20.5512C24.0965 24.0465 20.0193 29.0145 17.6117 34.8269C15.2041 40.6394 14.5742 47.0352 15.8015 53.2057C17.0289 59.3762 20.0585 65.0441 24.5071 69.4928C28.9558 73.9415 34.6237 76.9711 40.7942 78.1984C46.9647 79.4258 53.3606 78.7959 59.173 76.3883C64.9855 73.9807 69.9535 69.9036 73.4488 64.6725C75.6219 61.4201 77.1651 57.8125 78.0216 54.0366C78.8885 50.2151 81.9863 47 85.9048 47V47Z" stroke="black" stroke-opacity="0.25" stroke-width="2" mask="url(#path-1-outside-1_14_4)"/>
<defs>
<filter id="filter0_i_14_4" x="-3.05176e-05" y="0.472107" width="93.528" height="96.5279" filterUnits="userSpaceOnUse" color-interpolation-filters="sRGB">
<feFlood flood-opacity="0" result="BackgroundImageFix"/>
<feBlend mode="normal" in="SourceGraphic" in2="BackgroundImageFix" result="shape"/>
<feColorMatrix in="SourceAlpha" type="matrix" values="0 0 0 0 0 0 0 0 0 0 0 0 0 0 0 0 0 0 127 0" result="hardAlpha"/>
<feOffset dy="3"/>
<feGaussianBlur stdDeviation="2.15"/>
<feComposite in2="hardAlpha" operator="arithmetic" k2="-1" k3="1"/>
<feColorMatrix type="matrix" values="0 0 0 0 0 0 0 0 0 0 0 0 0 0 0 0 0 0 0.1 0"/>
<feBlend mode="normal" in2="shape" result="effect1_innerShadow_14_4"/>
</filter>
<radialGradient id="paint0_angular_14_4" cx="0" cy="0" r="1" gradientUnits="userSpaceOnUse" gradientTransform="translate(47 47) scale(46)">
<stop stop-color="white"/>
<stop offset="1" stop-color="#484848" stop-opacity="0.63"/>
</radialGradient>
</defs>
</svg>
