<svg width="17" height="17" viewBox="0 0 17 17" fill="none" xmlns="http://www.w3.org/2000/svg">
<path fill-rule="evenodd" clip-rule="evenodd" d="M8.05852 0.770508C3.60792 0.770508 0 4.37843 0 8.82903C0 13.2796 3.60792 16.8875 8.05852 16.8875C12.5091 16.8875 16.117 13.2796 16.117 8.82903C16.117 4.37843 12.5091 0.770508 8.05852 0.770508ZM5 6C5 5.44772 5.44772 5 6 5C6.55228 5 7 5.44772 7 6V12C7 12.5523 6.55228 13 6 13C5.44772 13 5 12.5523 5 12V6ZM9 6C9 5.44772 9.44771 5 10 5C10.5523 5 11 5.44772 11 6V12C11 12.5523 10.5523 13 10 13C9.44771 13 9 12.5523 9 12V6Z" fill="#D0D0D0"/>
</svg>
