<svg width="246" height="246" viewBox="0 0 246 246" fill="none" xmlns="http://www.w3.org/2000/svg">
<rect width="246" height="246" rx="32" fill="#033766" fill-opacity="0.963542"/>
<g filter="url(#filter0_d_145_274)">
<path d="M24 49.5998C36.2 46.8421 48.4 53.4604 53.9455 72.2127M53.9455 72.2127L94.9818 72.2129M53.9455 72.2127L62.9305 111.924M72.8 153.841C65.5909 156.782 51.9491 164.099 68.3636 176.454M72.8 153.841C81.1123 153.743 91.8326 153.635 103.3 153.545M72.8 153.841L62.9305 111.924M94.9818 72.2129L103.3 153.545M94.9818 72.2129H134.909M103.3 153.545C113.635 153.464 124.577 153.399 134.909 153.37M134.909 72.2129V153.37M134.909 72.2129H171.232M134.909 153.37C146.128 153.338 156.629 153.35 164.855 153.431M171.232 72.2129L203.653 72.2127C205.439 72.2127 206.83 73.7639 206.635 75.5395L202.647 111.924M171.232 72.2129L164.855 153.431M164.855 153.431C172.239 153.505 177.79 153.634 180.382 153.841C189.274 154.548 194.958 149.867 197.719 145.993C198.891 144.349 199.347 142.341 199.565 140.334L202.647 111.924M202.647 111.924H62.9305M117.718 177.557H154.318M174.947 189.012L175.317 189.277C178.323 191.43 182.466 191.04 185.013 188.366C187.992 185.239 187.646 180.248 184.264 177.557L183.907 177.273C181.283 175.185 177.575 175.115 174.872 177.102C170.832 180.071 170.87 186.093 174.947 189.012ZM98.2941 188.358V188.358C95.7586 191.02 91.6497 191.408 88.6608 189.268L88.2858 188.999C84.2028 186.075 84.165 180.017 88.2112 177.043V177.043C90.8982 175.067 94.5754 175.138 97.185 177.214L97.5459 177.501C100.935 180.198 101.282 185.222 98.2941 188.358Z" stroke="white" stroke-width="9" stroke-linecap="round" stroke-linejoin="round" shape-rendering="crispEdges"/>
</g>
<defs>
<filter id="filter0_d_145_274" x="16.1265" y="44.5005" width="198.4" height="162.468" filterUnits="userSpaceOnUse" color-interpolation-filters="sRGB">
<feFlood flood-opacity="0" result="BackgroundImageFix"/>
<feColorMatrix in="SourceAlpha" type="matrix" values="0 0 0 0 0 0 0 0 0 0 0 0 0 0 0 0 0 0 127 0" result="hardAlpha"/>
<feOffset dy="8.43137"/>
<feGaussianBlur stdDeviation="1.68627"/>
<feComposite in2="hardAlpha" operator="out"/>
<feColorMatrix type="matrix" values="0 0 0 0 0 0 0 0 0 0 0 0 0 0 0 0 0 0 0.25 0"/>
<feBlend mode="normal" in2="BackgroundImageFix" result="effect1_dropShadow_145_274"/>
<feBlend mode="normal" in="SourceGraphic" in2="effect1_dropShadow_145_274" result="shape"/>
</filter>
</defs>
</svg>
