<svg width="1373" height="270" viewBox="0 0 1373 270" fill="none" xmlns="http://www.w3.org/2000/svg">
<path d="M0 80H1373" stroke="white" stroke-width="1.98" stroke-linejoin="bevel"/>
<path d="M0 98H1373" stroke="white" stroke-width="1.98" stroke-linejoin="bevel"/>
<path d="M0 116H1373" stroke="white" stroke-width="1.98" stroke-linejoin="bevel"/>
<path d="M0 134H1373" stroke="white" stroke-width="1.98" stroke-linejoin="bevel"/>
<path d="M0 152H1373" stroke="white" stroke-width="1.98" stroke-linejoin="bevel"/>
<path fill-rule="evenodd" clip-rule="evenodd" d="M295.811 195.448C310.061 217.668 347.16 226.668 370.01 213.448C345.97 231.568 308.871 222.568 295.811 195.448Z" fill="white" stroke="white" stroke-width="1.26" stroke-linecap="round" stroke-linejoin="round"/>
<path fill-rule="evenodd" clip-rule="evenodd" d="M825.16 87.308C894.07 -12.452 1240.04 -31.352 1319.41 60.308C1240.32 -26.312 894.34 -7.41198 825.16 87.308Z" fill="white" stroke="white" stroke-width="1.26" stroke-linecap="round" stroke-linejoin="round"/>
<path fill-rule="evenodd" clip-rule="evenodd" d="M62.7061 192.748C90.5281 211.378 174 211.378 201.82 192.748C174 216.418 90.5281 216.418 62.7061 192.748Z" fill="white" stroke="white" stroke-width="1.26" stroke-linecap="round" stroke-linejoin="round"/>
<path fill-rule="evenodd" clip-rule="evenodd" d="M208.84 192.748C225.53 202.918 275.6 202.918 292.3 192.748C275.6 207.958 225.53 207.958 208.84 192.748Z" fill="white" stroke="white" stroke-width="1.26" stroke-linecap="round" stroke-linejoin="round"/>
<path d="M625.12 79.2578V153.238Z" fill="white"/>
<path d="M625.12 79.2578V153.238" stroke="white" stroke-width="3.24" stroke-linejoin="bevel"/>
<path d="M36.5525 173.556C36.125 170.754 34.3925 168.088 30.725 168.088C27.125 168.088 25.0325 170.316 24.6725 170.754L24.965 147.636C24.965 147.062 24.5375 146.634 23.9525 146.634H23.0975C22.5125 146.634 22.085 147.062 22.085 147.636L22.445 190.914C22.445 191.488 22.8725 191.916 23.4575 191.916C23.5925 191.916 23.885 191.848 24.0312 191.781C24.3125 191.634 28.9925 189.328 32.885 184.941C35.6187 181.836 36.6987 178.314 36.6987 175.356C36.6987 174.714 36.6312 174.141 36.5525 173.556ZM31.5912 176.368C31.5912 177.448 31.2987 180.756 29.4987 183.501C28.2725 185.368 25.8312 187.314 24.4587 188.394L24.6725 174.354C24.8187 173.702 25.8987 171.621 28.7787 171.621C31.3775 171.621 31.5912 174.062 31.5912 175.581V176.368Z" fill="white"/>
<path d="M403.558 166.074C403.423 165.928 403.198 165.86 402.984 165.86C402.917 165.86 402.77 165.928 402.703 165.928L393.624 168.448V155.848H391.61V191.488C391.61 192.062 392.038 192.422 392.623 192.422H392.904L401.983 189.902V202.502H403.918V166.862C403.918 166.58 403.783 166.22 403.558 166.074ZM401.983 183.928L393.624 186.234V174.422L401.983 172.048V183.928Z" fill="white"/>
<path d="M784.774 162.62C785.213 162.542 785.573 162.035 785.573 161.608V157.355C785.573 156.782 785.134 156.354 784.56 156.354H784.414L782.04 156.86V146.128H780.026V157.288L773.614 158.582V148.434H771.6V159.02L768.788 159.594C768.36 159.662 768 160.168 768 160.595V160.742V164.915V164.78C768 165.354 768.428 165.782 769.013 165.782H769.226L771.6 165.275V177.155L768.788 177.74C768.36 177.808 768 178.314 768 178.742V182.915C768 183.5 768.428 183.928 769.013 183.928H769.226L771.6 183.422V194.154H773.614V182.994L780.026 181.7V191.848H782.04V181.262L784.774 180.755C785.213 180.688 785.573 180.182 785.573 179.754V175.502C785.573 174.928 785.134 174.5 784.56 174.5H784.414L782.04 174.995V163.115L784.774 162.62ZM773.614 176.795V164.848L780.026 163.554V175.434L773.614 176.795Z" fill="white"/>
<path d="M1082.09 180.62C1082.53 180.542 1082.89 180.035 1082.89 179.608V175.355C1082.89 174.782 1082.45 174.354 1081.88 174.354H1081.73L1079.36 174.86V164.128H1077.35V175.288L1070.93 176.582V166.434H1068.92V177.02L1066.11 177.594C1065.68 177.662 1065.32 178.168 1065.32 178.595V178.742V182.915V182.78C1065.32 183.354 1065.75 183.782 1066.33 183.782H1066.55L1068.92 183.275V195.155L1066.11 195.74C1065.68 195.808 1065.32 196.314 1065.32 196.742V200.915C1065.32 201.5 1065.75 201.928 1066.33 201.928H1066.55L1068.92 201.422V212.154H1070.93V200.994L1077.35 199.7V209.848H1079.36V199.262L1082.09 198.755C1082.53 198.688 1082.89 198.182 1082.89 197.754V193.502C1082.89 192.928 1082.45 192.5 1081.88 192.5H1081.73L1079.36 192.995V181.115L1082.09 180.62ZM1070.93 194.795V182.848L1077.35 181.554V193.434L1070.93 194.795Z" fill="white"/>
<path d="M1254.66 126.62C1255.1 126.542 1255.46 126.035 1255.46 125.608V121.355C1255.46 120.782 1255.02 120.354 1254.45 120.354H1254.3L1251.93 120.86V110.128H1249.92V121.288L1243.5 122.582V112.434H1241.49V123.02L1238.68 123.594C1238.25 123.662 1237.89 124.168 1237.89 124.595V124.742V128.915V128.78C1237.89 129.354 1238.32 129.782 1238.9 129.782H1239.12L1241.49 129.275V141.155L1238.68 141.74C1238.25 141.808 1237.89 142.314 1237.89 142.742V146.915C1237.89 147.5 1238.32 147.928 1238.9 147.928H1239.12L1241.49 147.422V158.154H1243.5V146.994L1249.92 145.7V155.848H1251.93V145.262L1254.66 144.755C1255.1 144.688 1255.46 144.182 1255.46 143.754V139.502C1255.46 138.928 1255.02 138.5 1254.45 138.5H1254.3L1251.93 138.995V127.115L1254.66 126.62ZM1243.5 140.795V128.848L1249.92 127.554V139.434L1243.5 140.795Z" fill="white"/>
<path d="M1302.86 103.074C1302.72 102.928 1302.5 102.86 1302.28 102.86C1302.22 102.86 1302.07 102.928 1302 102.928L1292.92 105.448V92.8479H1290.91V128.488C1290.91 129.062 1291.34 129.422 1291.92 129.422H1292.2L1301.28 126.902V139.502H1303.22V103.862C1303.22 103.58 1303.08 103.22 1302.86 103.074ZM1301.28 120.928L1292.92 123.234V111.422L1301.28 109.048V120.928Z" fill="white"/>
<path d="M41.1992 170.248H77.1942Z" fill="white"/>
<path d="M41.1992 170.248H77.1942" stroke="white" stroke-width="2.88" stroke-linejoin="bevel"/>
<path d="M187.33 170.248H223.32Z" fill="white"/>
<path d="M187.33 170.248H223.32" stroke="white" stroke-width="2.88" stroke-linejoin="bevel"/>
<path d="M277.811 170.248H313.801Z" fill="white"/>
<path d="M277.811 170.248H313.801" stroke="white" stroke-width="2.88" stroke-linejoin="bevel"/>
<path d="M352.01 188.248H388.01Z" fill="white"/>
<path d="M352.01 188.248H388.01" stroke="white" stroke-width="2.88" stroke-linejoin="bevel"/>
<path d="M352.01 170.248H388.01Z" fill="white"/>
<path d="M352.01 170.248H388.01" stroke="white" stroke-width="2.88" stroke-linejoin="bevel"/>
<path d="M408.41 170.248H444.41Z" fill="white"/>
<path d="M408.41 170.248H444.41" stroke="white" stroke-width="2.88" stroke-linejoin="bevel"/>
<path d="M790.061 170.248H826.061Z" fill="white"/>
<path d="M790.061 170.248H826.061" stroke="white" stroke-width="2.88" stroke-linejoin="bevel"/>
<path d="M1025.73 170.248H1061.72Z" fill="white"/>
<path d="M1025.73 170.248H1061.72" stroke="white" stroke-width="2.88" stroke-linejoin="bevel"/>
<path d="M1087.39 188.248H1123.39Z" fill="white"/>
<path d="M1087.39 188.248H1123.39" stroke="white" stroke-width="2.88" stroke-linejoin="bevel"/>
<path d="M1087.39 170.248H1123.39Z" fill="white"/>
<path d="M1087.39 170.248H1123.39" stroke="white" stroke-width="2.88" stroke-linejoin="bevel"/>
<path d="M1126.99 170.248H1162.98Z" fill="white"/>
<path d="M1126.99 170.248H1162.98" stroke="white" stroke-width="2.88" stroke-linejoin="bevel"/>
<path d="M69.9043 176.948V116.248Z" fill="white"/>
<path d="M69.9043 176.948V116.248" stroke="white" stroke-width="1.98" stroke-linejoin="bevel"/>
<path d="M216.03 176.948V116.248Z" fill="white"/>
<path d="M216.03 176.948V116.248" stroke="white" stroke-width="1.98" stroke-linejoin="bevel"/>
<path d="M306.51 176.948V116.248Z" fill="white"/>
<path d="M306.51 176.948V116.248" stroke="white" stroke-width="1.98" stroke-linejoin="bevel"/>
<path d="M380.72 194.948V120.748Z" fill="white"/>
<path d="M380.72 194.948V120.748" stroke="white" stroke-width="1.98" stroke-linejoin="bevel"/>
<path d="M437.12 176.948V116.248Z" fill="white"/>
<path d="M437.12 176.948V116.248" stroke="white" stroke-width="1.98" stroke-linejoin="bevel"/>
<path d="M818.77 167.948V107.248Z" fill="white"/>
<path d="M818.77 167.948V107.248" stroke="white" stroke-width="1.98" stroke-linejoin="bevel"/>
<path d="M921.87 149.948V66.748Z" fill="white"/>
<path d="M921.87 149.948V66.748" stroke="white" stroke-width="1.98" stroke-linejoin="bevel"/>
<path d="M980.79 140.948V63.8081Z" fill="white"/>
<path d="M980.79 140.948V63.8081" stroke="white" stroke-width="1.98" stroke-linejoin="bevel"/>
<path d="M1017.61 158.948V61.9678Z" fill="white"/>
<path d="M1017.61 158.948V61.9678" stroke="white" stroke-width="1.98" stroke-linejoin="bevel"/>
<path d="M1054.43 176.948V60.1279Z" fill="white"/>
<path d="M1054.43 176.948V60.1279" stroke="white" stroke-width="1.98" stroke-linejoin="bevel"/>
<path d="M1116.1 185.948V57.0479Z" fill="white"/>
<path d="M1116.1 185.948V57.0479" stroke="white" stroke-width="1.98" stroke-linejoin="bevel"/>
<path d="M1155.69 167.948V55.0679Z" fill="white"/>
<path d="M1155.69 167.948V55.0679" stroke="white" stroke-width="1.98" stroke-linejoin="bevel"/>
<path d="M1192.51 131.948V53.2378Z" fill="white"/>
<path d="M1192.51 131.948V53.2378" stroke="white" stroke-width="1.98" stroke-linejoin="bevel"/>
<path d="M1229.34 149.948V51.3979Z" fill="white"/>
<path d="M1229.34 149.948V51.3979" stroke="white" stroke-width="1.98" stroke-linejoin="bevel"/>
<path d="M1282.36 131.948V48.748Z" fill="white"/>
<path d="M1282.36 131.948V48.748" stroke="white" stroke-width="1.98" stroke-linejoin="bevel"/>
<path d="M1308.7 118.668V179.248Z" fill="white"/>
<path d="M1308.7 118.668V179.248" stroke="white" stroke-width="1.98" stroke-linejoin="bevel"/>
<path d="M70.179 173.387C68.8853 171.013 66.1516 169.719 62.8328 169.719C60.3916 169.719 57.7253 170.439 55.1266 171.8C50.379 174.321 47.499 178.573 47.499 182.241C47.499 183.253 47.7128 184.266 48.219 185.199C49.5128 187.584 52.2465 188.811 55.5653 188.811C58.0066 188.811 60.6728 188.158 63.2716 186.797C68.019 184.266 70.899 180.013 70.899 176.334C70.899 175.333 70.6853 174.321 70.179 173.387ZM67.0853 178.281C65.859 179.507 63.4066 181.014 60.819 182.466C58.2316 183.906 55.6328 184.986 53.9115 185.346C53.5515 185.424 53.1915 185.492 52.8315 185.492C51.6728 185.492 50.8065 185.064 50.3115 184.119C50.0865 183.759 49.9515 183.332 49.9515 182.893C49.9515 182.106 50.4465 181.161 51.2453 180.373C52.4715 179.147 54.8453 177.639 57.4328 176.199C60.0316 174.759 62.619 173.679 64.3516 173.319C64.7116 173.241 65.0716 173.173 65.4316 173.173C66.579 173.173 67.5128 173.601 68.019 174.534C68.2328 174.894 68.3116 175.333 68.3116 175.761C68.3116 176.559 67.8728 177.414 67.0853 178.281Z" fill="white"/>
<path d="M216.31 173.42C215.016 171.035 212.282 169.742 208.964 169.742C206.522 169.742 203.856 170.462 201.257 171.834C196.51 174.354 193.63 178.595 193.63 182.274C193.63 183.275 193.844 184.288 194.35 185.222C195.644 187.595 198.377 188.822 201.696 188.822C204.137 188.822 206.804 188.18 209.402 186.808C214.15 184.288 217.03 180.035 217.03 176.368C217.03 175.355 216.816 174.354 216.31 173.42Z" fill="white"/>
<path d="M306.79 173.42C305.497 171.035 302.763 169.742 299.444 169.742C297.003 169.742 294.337 170.462 291.738 171.834C286.99 174.354 284.11 178.595 284.11 182.274C284.11 183.275 284.324 184.288 284.83 185.222C286.124 187.595 288.858 188.822 292.177 188.822C294.618 188.822 297.284 188.18 299.883 186.808C304.63 184.288 307.51 180.035 307.51 176.368C307.51 175.355 307.297 174.354 306.79 173.42Z" fill="white"/>
<path d="M380.991 191.42C379.697 189.035 376.963 187.742 373.644 187.742C371.203 187.742 368.537 188.462 365.938 189.834C361.191 192.354 358.311 196.595 358.311 200.274C358.311 201.275 358.524 202.288 359.031 203.222C360.324 205.595 363.058 206.822 366.377 206.822C368.818 206.822 371.484 206.18 374.083 204.808C378.831 202.288 381.711 198.035 381.711 194.368C381.711 193.355 381.497 192.354 380.991 191.42Z" fill="white"/>
<path d="M437.39 173.42C436.096 171.035 433.362 169.742 430.044 169.742C427.602 169.742 424.936 170.462 422.337 171.834C417.59 174.354 414.71 178.595 414.71 182.274C414.71 183.275 414.924 184.288 415.43 185.222C416.724 187.595 419.457 188.822 422.776 188.822C425.217 188.822 427.884 188.18 430.482 186.808C435.23 184.288 438.11 180.035 438.11 176.368C438.11 175.355 437.896 174.354 437.39 173.42Z" fill="white"/>
<path d="M819.04 164.42C817.747 162.035 815.013 160.742 811.694 160.742C809.253 160.742 806.587 161.462 803.988 162.834C799.24 165.354 796.36 169.595 796.36 173.274C796.36 174.275 796.574 175.288 797.08 176.222C798.374 178.595 801.108 179.822 804.427 179.822C806.868 179.822 809.534 179.18 812.133 177.808C816.88 175.288 819.76 171.035 819.76 167.368C819.76 166.355 819.547 165.354 819.04 164.42Z" fill="white"/>
<path d="M922.15 146.42C920.856 144.035 918.122 142.742 914.803 142.742C912.362 142.742 909.696 143.462 907.097 144.834C902.35 147.354 899.47 151.595 899.47 155.274C899.47 156.275 899.683 157.288 900.19 158.222C901.483 160.595 904.217 161.822 907.536 161.822C909.977 161.822 912.643 161.18 915.242 159.808C919.99 157.288 922.87 153.035 922.87 149.368C922.87 148.355 922.656 147.354 922.15 146.42Z" fill="white"/>
<path d="M981.06 137.42C979.766 135.035 977.032 133.742 973.714 133.742C971.272 133.742 968.606 134.462 966.007 135.834C961.26 138.354 958.38 142.595 958.38 146.274C958.38 147.275 958.594 148.288 959.1 149.222C960.394 151.595 963.127 152.822 966.446 152.822C968.887 152.822 971.554 152.18 974.152 150.808C978.9 148.288 981.78 144.035 981.78 140.368C981.78 139.355 981.566 138.354 981.06 137.42Z" fill="white"/>
<path d="M1017.89 155.42C1016.6 153.035 1013.86 151.742 1010.54 151.742C1008.1 151.742 1005.44 152.462 1002.84 153.834C998.09 156.354 995.21 160.595 995.21 164.274C995.21 165.275 995.424 166.288 995.93 167.222C997.224 169.595 999.957 170.822 1003.28 170.822C1005.72 170.822 1008.38 170.18 1010.98 168.808C1015.73 166.288 1018.61 162.035 1018.61 158.368C1018.61 157.355 1018.4 156.354 1017.89 155.42Z" fill="white"/>
<path d="M1054.71 173.42C1053.42 171.035 1050.68 169.742 1047.36 169.742C1044.92 169.742 1042.26 170.462 1039.66 171.834C1034.91 174.354 1032.03 178.595 1032.03 182.274C1032.03 183.275 1032.24 184.288 1032.75 185.222C1034.04 187.595 1036.78 188.822 1040.1 188.822C1042.54 188.822 1045.2 188.18 1047.8 186.808C1052.55 184.288 1055.43 180.035 1055.43 176.368C1055.43 175.355 1055.22 174.354 1054.71 173.42Z" fill="white"/>
<path d="M1116.37 182.42C1115.08 180.035 1112.34 178.742 1109.02 178.742C1106.58 178.742 1103.92 179.462 1101.32 180.834C1096.57 183.354 1093.69 187.595 1093.69 191.274C1093.69 192.275 1093.9 193.288 1094.41 194.222C1095.7 196.595 1098.44 197.822 1101.76 197.822C1104.2 197.822 1106.86 197.18 1109.46 195.808C1114.21 193.288 1117.09 189.035 1117.09 185.368C1117.09 184.355 1116.88 183.354 1116.37 182.42Z" fill="white"/>
<path d="M1155.97 164.42C1154.68 162.035 1151.94 160.742 1148.62 160.742C1146.18 160.742 1143.52 161.462 1140.92 162.834C1136.17 165.354 1133.29 169.595 1133.29 173.274C1133.29 174.275 1133.5 175.288 1134.01 176.222C1135.3 178.595 1138.04 179.822 1141.36 179.822C1143.8 179.822 1146.46 179.18 1149.06 177.808C1153.81 175.288 1156.69 171.035 1156.69 167.368C1156.69 166.355 1156.48 165.354 1155.97 164.42Z" fill="white"/>
<path d="M1192.79 128.42C1191.5 126.035 1188.76 124.742 1185.44 124.742C1183 124.742 1180.34 125.462 1177.74 126.834C1172.99 129.354 1170.11 133.595 1170.11 137.274C1170.11 138.275 1170.32 139.288 1170.83 140.222C1172.12 142.595 1174.86 143.822 1178.18 143.822C1180.62 143.822 1183.28 143.18 1185.88 141.808C1190.63 139.288 1193.51 135.035 1193.51 131.368C1193.51 130.355 1193.3 129.354 1192.79 128.42Z" fill="white"/>
<path d="M1229.61 146.42C1228.32 144.035 1225.58 142.742 1222.26 142.742C1219.82 142.742 1217.16 143.462 1214.56 144.834C1209.81 147.354 1206.93 151.595 1206.93 155.274C1206.93 156.275 1207.14 157.288 1207.65 158.222C1208.94 160.595 1211.68 161.822 1215 161.822C1217.44 161.822 1220.1 161.18 1222.7 159.808C1227.45 157.288 1230.33 153.035 1230.33 149.368C1230.33 148.355 1230.12 147.354 1229.61 146.42Z" fill="white"/>
<path d="M1282.63 128.42C1281.34 126.035 1278.6 124.742 1275.28 124.742C1272.84 124.742 1270.18 125.462 1267.58 126.834C1262.83 129.354 1259.95 133.595 1259.95 137.274C1259.95 138.275 1260.16 139.288 1260.67 140.222C1261.96 142.595 1264.7 143.822 1268.02 143.822C1270.46 143.822 1273.12 143.18 1275.72 141.808C1280.47 139.288 1283.35 135.035 1283.35 131.368C1283.35 130.355 1283.14 129.354 1282.63 128.42Z" fill="white"/>
<path d="M1330.39 110.42C1329.1 108.035 1326.36 106.742 1323.04 106.742C1320.6 106.742 1317.94 107.462 1315.34 108.834C1310.59 111.354 1307.71 115.595 1307.71 119.274C1307.71 120.275 1307.92 121.288 1308.43 122.222C1309.72 124.595 1312.46 125.822 1315.78 125.822C1318.22 125.822 1320.88 125.18 1323.48 123.808C1328.23 121.288 1331.11 117.035 1331.11 113.368C1331.11 112.355 1330.9 111.354 1330.39 110.42Z" fill="white"/>
<path d="M552.268 101.657C551.728 101.454 551.245 101.702 551.008 102.14C550.772 102.579 548.477 106.843 545.293 109.194C544.292 109.925 543.145 110.387 542.02 110.623C542.83 109.723 543.313 108.519 543.313 107.214C543.313 104.368 541.007 102.062 538.172 102.062C535.326 102.062 533.02 104.368 533.02 107.214C533.02 109.374 534.37 111.242 536.271 111.995C537.373 112.513 538.746 112.839 540.22 112.839C542.267 112.839 544.506 112.243 546.463 110.803C547.375 110.139 548.23 109.273 549.006 108.373L540.805 134.023L542.706 134.642L552.842 102.894C553.011 102.365 552.797 101.87 552.268 101.657Z" fill="white"/>
<path d="M675.688 101.657C675.148 101.454 674.664 101.702 674.428 102.14C674.192 102.579 671.897 106.843 668.713 109.194C667.712 109.925 666.564 110.387 665.439 110.623C666.249 109.723 666.733 108.519 666.733 107.214C666.733 104.368 664.427 102.062 661.592 102.062C658.746 102.062 656.439 104.368 656.439 107.214C656.439 109.374 657.789 111.242 659.691 111.995C660.793 112.513 662.166 112.839 663.639 112.839C665.687 112.839 667.926 112.243 669.883 110.803C670.794 110.139 671.649 109.273 672.426 108.373L664.224 134.023L666.126 134.642L676.262 102.894C676.431 102.365 676.217 101.87 675.688 101.657Z" fill="white"/>
<path d="M761.547 101.657C761.007 101.465 760.523 101.724 760.298 102.174C760.084 102.613 758.048 106.528 754.943 108.98C753.976 109.745 752.851 110.24 751.726 110.522C752.502 109.577 752.952 108.373 752.907 107.068C752.806 104.233 750.432 102.017 747.597 102.118C744.762 102.219 742.534 104.593 742.636 107.428C742.714 109.599 744.121 111.399 746.044 112.085C747.169 112.58 748.542 112.839 750.016 112.794C752.063 112.715 754.279 112.04 756.181 110.544C757.069 109.847 757.902 108.958 758.644 108.024V108.035L755.404 119.488C755.404 119.488 755.404 119.499 755.393 119.499V119.51C755.056 120.197 752.716 124.641 749.824 126.924C748.857 127.701 747.732 128.196 746.607 128.466C747.383 127.532 747.833 126.328 747.788 125.023C747.687 122.177 745.313 119.96 742.478 120.062C739.643 120.163 737.416 122.537 737.517 125.383C737.596 127.543 739.002 129.343 740.926 130.041C742.051 130.524 743.423 130.794 744.897 130.738C746.944 130.671 749.161 129.996 751.062 128.499C751.939 127.802 752.772 126.924 753.514 125.979L746.168 152.237L748.092 152.777L761.536 105.11L762.166 102.86C762.312 102.332 762.087 101.837 761.547 101.657Z" fill="white"/>
<path d="M203.352 199.242C204.454 200.333 206.232 200.333 207.323 199.242C208.425 198.139 208.425 196.362 207.323 195.27C206.232 194.168 204.454 194.168 203.352 195.27C202.26 196.362 202.26 198.139 203.352 199.242Z" fill="white"/>
<path d="M82.8679 237.848C82.5559 237.768 82.1959 237.728 81.8679 237.728C79.5089 237.728 77.1029 239.688 75.8369 240.978L75.6339 241.158L75.5089 240.928C75.5089 240.898 73.915 238.008 71.228 237.648C70.915 237.618 70.587 237.618 70.275 237.618C67.79 237.618 64.8369 238.728 63.1179 242.728C62.4779 239.128 59.9929 238.048 58.9929 237.798C58.6809 237.728 58.3059 237.688 57.9929 237.688C55.6339 237.688 53.2279 239.648 51.9619 240.928L51.7589 241.128L51.6339 240.898C51.6339 240.848 50.04 238.008 47.353 237.618C47.071 237.568 46.7899 237.538 46.5089 237.538C43.9929 237.538 41.3529 239.288 39.1959 245.518L40.556 246.208C40.884 245.208 41.712 242.848 42.603 241.648C43.04 240.978 43.868 240.338 44.603 240.208C44.962 240.128 45.228 240.208 45.478 240.368C45.759 240.568 45.8679 241.008 45.8679 241.518C45.8679 243.368 44.5559 246.618 44.1959 247.368L36.6339 268.318H31.9619V269.878H49.0399V268.318H43.275L47.7119 256.128L47.9149 256.598C47.9149 256.598 48.712 258.368 51.275 259.008C51.759 259.128 52.2279 259.158 52.7119 259.158C56.7589 259.158 60.8369 255.128 62.5089 249.338C63.7119 245.128 64.5869 243.258 65.5089 241.978C66.0709 241.208 67.0249 240.048 68.1959 240.048C68.3529 240.048 68.5089 240.088 68.7119 240.128C69.5089 240.368 69.7899 240.928 69.7899 241.728C69.7899 243.008 68.9929 244.978 68.0709 247.408L60.5089 268.368H55.8369V269.878H72.9149V268.368H67.1959L71.5869 256.158L71.8369 256.648C71.8369 256.648 72.587 258.408 75.15 259.048C75.634 259.158 76.1029 259.208 76.5869 259.208C80.7429 259.208 85.0249 254.878 86.5869 248.768C87.0249 247.088 87.181 245.688 87.181 244.488C87.181 239.408 84.0249 238.128 82.8679 237.848ZM56.7589 248.928C55.7899 251.878 53.9149 255.488 51.9929 256.408C51.7589 256.518 51.3529 256.598 51.1179 256.598C50.9619 256.598 50.712 256.518 50.556 256.488C49.431 256.048 49.0709 254.768 49.0709 253.288C49.0709 250.928 49.9929 248.158 50.0399 247.978C50.7589 245.088 52.8679 241.898 54.8679 240.768C55.3999 240.438 55.915 240.338 56.353 240.338C56.556 240.338 56.7589 240.338 56.9459 240.408C57.2749 240.488 57.509 240.728 57.681 241.048C57.915 241.488 57.9929 242.088 57.9929 242.768C57.9929 244.798 57.1959 247.568 56.7589 248.928ZM80.6339 248.978C79.6649 251.928 77.7899 255.488 75.8679 256.408C75.6339 256.518 75.2279 256.648 74.9929 256.648C74.8369 256.648 74.587 256.568 74.431 256.518C73.306 256.088 72.9459 254.798 72.9459 253.338C72.9459 250.978 73.8679 248.208 73.9149 248.008C74.6339 245.128 76.7429 241.928 78.7429 240.798C79.2749 240.488 79.79 240.368 80.228 240.368C80.431 240.368 80.6339 240.368 80.8369 240.438C81.1499 240.538 81.384 240.768 81.556 241.088C81.79 241.518 81.8679 242.128 81.8679 242.798C81.8679 244.848 81.0709 247.618 80.6339 248.978Z" fill="white"/>
<path d="M450.08 212.708C449.77 212.628 449.41 212.588 449.08 212.588C446.72 212.588 444.32 214.558 443.05 215.838L442.85 216.028L442.72 215.788C442.72 215.758 441.13 212.868 438.44 212.508C438.13 212.478 437.8 212.478 437.49 212.478C435 212.478 432.05 213.588 430.33 217.588C429.69 213.988 427.21 212.918 426.21 212.668C425.89 212.588 425.52 212.558 425.21 212.558C422.85 212.558 420.44 214.508 419.18 215.788L418.97 215.988L418.85 215.758C418.85 215.708 417.25 212.868 414.57 212.478C414.29 212.428 414 212.398 413.72 212.398C411.21 212.398 408.57 214.148 406.41 220.378L407.77 221.068C408.1 220.068 408.93 217.708 409.82 216.508C410.25 215.838 411.08 215.198 411.82 215.068C412.18 214.988 412.44 215.068 412.69 215.228C412.97 215.428 413.08 215.868 413.08 216.378C413.08 218.228 411.77 221.478 411.41 222.228L403.85 243.178H399.18V244.738H416.25V243.178H410.49L414.93 230.988L415.13 231.458C415.13 231.458 415.93 233.228 418.49 233.868C418.97 233.988 419.44 234.028 419.93 234.028C423.97 234.028 428.05 229.988 429.72 224.198C430.93 219.988 431.8 218.118 432.72 216.838C433.29 216.068 434.24 214.918 435.41 214.918C435.57 214.918 435.72 214.948 435.93 214.988C436.72 215.228 437 215.788 437 216.588C437 217.868 436.21 219.838 435.29 222.278L427.72 243.228H423.05V244.738H440.13V243.228H434.41L438.8 231.028L439.05 231.508C439.05 231.508 439.8 233.278 442.36 233.918C442.85 234.028 443.32 234.068 443.8 234.068C447.96 234.068 452.24 229.738 453.8 223.628C454.24 221.948 454.39 220.558 454.39 219.348C454.39 214.278 451.24 212.988 450.08 212.708ZM423.97 223.788C423 226.738 421.13 230.348 419.21 231.278C418.97 231.378 418.57 231.458 418.33 231.458C418.18 231.458 417.93 231.378 417.77 231.348C416.64 230.918 416.29 229.628 416.29 228.148C416.29 225.788 417.21 223.028 417.25 222.838C417.97 219.948 420.08 216.758 422.08 215.628C422.61 215.308 423.13 215.198 423.57 215.198C423.77 215.198 423.97 215.198 424.16 215.278C424.49 215.348 424.72 215.588 424.89 215.918C425.13 216.348 425.21 216.948 425.21 217.628C425.21 219.668 424.41 222.428 423.97 223.788ZM447.85 223.838C446.88 226.788 445 230.348 443.08 231.278C442.85 231.378 442.44 231.508 442.21 231.508C442.05 231.508 441.8 231.428 441.64 231.378C440.52 230.948 440.16 229.668 440.16 228.198C440.16 225.838 441.08 223.068 441.13 222.868C441.85 219.988 443.96 216.788 445.96 215.668C446.49 215.348 447 215.228 447.44 215.228C447.64 215.228 447.85 215.228 448.05 215.308C448.36 215.398 448.6 215.628 448.77 215.948C449 216.378 449.08 216.988 449.08 217.668C449.08 219.708 448.29 222.478 447.85 223.838Z" fill="white"/>
<path d="M792.33 257.148H809.4V255.598H803.64L808.08 243.398L808.28 243.908C808.28 243.908 809.08 245.678 811.64 246.318C812.12 246.428 812.59 246.478 813.08 246.478C817.23 246.478 821.51 242.158 823.08 236.038C823.51 234.348 823.67 232.958 823.67 231.758C823.67 226.678 820.51 225.348 819.36 225.088C819.05 224.988 818.67 224.958 818.36 224.958C816 224.958 813.59 226.908 812.33 228.198L812.12 228.448L812 228.158C812 228.118 810.4 225.318 807.72 224.908C807.44 224.878 807.15 224.838 806.87 224.838C804.36 224.838 801.72 226.598 799.56 232.838L800.92 233.518C801.25 232.518 802.08 230.118 802.97 228.908C803.4 228.238 804.23 227.598 804.97 227.478C805.33 227.398 805.59 227.478 805.84 227.628C806.12 227.838 806.23 228.238 806.23 228.808C806.23 230.628 804.92 233.908 804.56 234.678L797 255.598H792.33V257.148ZM811.48 243.878C811.33 243.878 811.08 243.838 810.92 243.788C809.8 243.348 809.48 242.038 809.48 240.558C809.48 238.198 810.36 235.448 810.4 235.238C811.12 232.348 813.23 229.158 815.23 228.038C815.76 227.728 816.28 227.598 816.72 227.598C816.92 227.598 817.12 227.598 817.31 227.678C817.64 227.758 817.87 228.038 818.05 228.348C818.28 228.808 818.36 229.398 818.36 230.088C818.36 232.118 817.56 234.878 817.12 236.238C816.15 239.198 814.28 242.758 812.36 243.678C812.12 243.788 811.72 243.878 811.48 243.878Z" fill="white"/>
<path d="M1299.58 249.708C1297.55 249.708 1295.63 251.628 1295.63 253.678C1295.63 257.678 1298.34 259.868 1301.83 259.868C1304.27 259.868 1306.02 259.068 1307.94 257.148C1311.27 253.838 1314.91 242.478 1316.78 235.988C1317.45 233.598 1318.19 231.158 1318.7 229.398L1318.73 229.238H1324.22C1324.66 229.238 1325.02 228.908 1325.02 228.478V226.838C1325.02 226.398 1324.66 226.038 1324.22 226.038H1319.66L1319.73 225.758C1321.86 217.908 1322.5 216.598 1323.63 215.728C1324.22 215.238 1324.78 215.118 1325.14 215.118C1325.3 215.118 1325.42 215.118 1325.5 215.158C1325.86 215.238 1326.14 215.518 1326.27 215.808C1326.3 215.958 1326.34 216.088 1326.34 216.238C1326.34 216.598 1326.17 216.958 1325.91 217.118C1325.14 217.728 1324.73 218.628 1324.73 219.628C1324.73 220.008 1324.78 220.398 1324.91 220.808C1325.09 221.518 1325.7 222.158 1326.5 222.518C1326.81 222.678 1327.27 222.808 1327.81 222.808C1328.38 222.808 1328.98 222.678 1329.7 222.268C1330.63 221.808 1331.22 221.038 1331.5 220.088C1331.63 219.678 1331.66 219.238 1331.66 218.808C1331.66 217.838 1331.38 216.808 1330.89 215.908C1330.27 214.808 1328.45 213.448 1326.02 213.038C1325.63 212.958 1325.22 212.908 1324.73 212.908C1322.91 212.908 1320.5 213.558 1318.02 215.838C1316.06 217.628 1314.3 220.878 1312.63 225.878L1312.58 226.038H1306.83C1306.38 226.038 1306.06 226.398 1306.06 226.838V228.478C1306.06 228.908 1306.38 229.268 1306.83 229.268H1311.58L1311.5 229.518C1310.73 232.558 1310.19 235.198 1309.63 237.708C1308.98 240.518 1308.3 243.428 1307.42 246.958L1307.22 247.838C1305.63 254.068 1305.11 256.348 1303.27 257.558C1302.91 257.788 1302.42 257.958 1301.98 257.958C1301.58 257.958 1301.22 257.838 1300.94 257.598C1300.75 257.428 1300.42 257.118 1300.5 256.708C1300.55 256.398 1300.78 256.148 1301.14 255.988C1302.63 255.398 1303.06 253.958 1303.06 252.758C1303.06 251.678 1302.34 249.708 1299.58 249.708Z" fill="white"/>
<path fill-rule="evenodd" clip-rule="evenodd" d="M305.52 111.618L381.709 116.238V125.258L305.52 120.638V111.618Z" fill="white"/>
<path fill-rule="evenodd" clip-rule="evenodd" d="M381.71 129.738L358.311 128.318V137.338L381.71 138.758V129.738Z" fill="white"/>
<path fill-rule="evenodd" clip-rule="evenodd" d="M920.88 62.3378L1283.35 44.2378V53.2578L920.88 71.3478V62.3378Z" fill="white"/>
<path fill-rule="evenodd" clip-rule="evenodd" d="M920.88 75.8378L1283.35 57.7378V66.7578L920.88 84.8478V75.8378Z" fill="white"/>
<path fill-rule="evenodd" clip-rule="evenodd" d="M979.8 86.3978L1283.35 71.2378V80.2578L979.8 95.4078V86.3978Z" fill="white"/>
<path d="M217.56 118.768C217.493 118.554 216.84 116.034 216.84 115.888C216.773 115.596 216.334 115.382 215.974 115.382C215.468 115.382 215.04 115.821 215.04 116.316V128.128V132.594C215.04 132.954 215.333 133.236 215.614 133.382C218.64 134.316 224.906 138.287 229.586 146.274C230.88 148.502 232.973 151.528 232.973 157.581C232.973 162.767 232.174 168.234 230.88 173.274C230.666 174.073 230.453 174.793 231.24 175.074C232.028 175.367 232.32 174.793 232.613 174.073C235.2 167.728 235.853 161.102 235.853 156.647V155.274C235.493 145.982 230.16 139.142 230.16 139.142C230.374 139.142 223.534 130.288 221.588 127.262C218.933 123.156 217.628 119.061 217.56 118.768Z" fill="white"/>
<path d="M1309.51 179.54C1309.51 179.394 1310.16 176.942 1310.23 176.728C1310.3 176.435 1311.6 172.34 1314.26 168.234C1316.2 165.208 1323.04 156.354 1322.83 156.354C1322.83 156.354 1328.16 149.514 1328.52 140.222V138.568C1328.52 134.169 1327.95 127.982 1325.42 121.715C1325.14 120.995 1324.84 120.275 1324.06 120.568C1323.26 120.849 1323.48 121.715 1323.7 122.503C1324.99 127.554 1325.71 132.729 1325.71 137.915C1325.71 143.968 1323.55 146.994 1322.26 149.222C1317.5 157.209 1311.31 161.102 1308.28 162.114C1307.92 162.26 1307.71 162.542 1307.71 162.902V167.368V179.18C1307.71 179.675 1308.14 180.114 1308.64 180.114C1309 180.114 1309.44 179.822 1309.51 179.54Z" fill="white"/>
<path d="M345.5 57.6078C347.02 57.1278 347.611 56.8578 348.391 56.3578C349.891 55.3578 350.811 53.6079 350.811 51.8079C350.811 48.7679 348.391 46.7178 344.801 46.7178C341.311 46.7178 338.37 48.9078 338.37 51.5178C338.37 52.8278 339.171 53.7278 340.391 53.7278C341.441 53.7278 342.2 52.9678 342.2 51.9078C342.2 51.3578 342.051 50.9778 341.531 50.4678C341.221 50.1678 341.09 49.9478 341.09 49.7278C341.09 48.9678 342.69 48.1578 344.19 48.1578C346.34 48.1578 347.61 49.3378 347.61 51.3278C347.61 54.1678 345.59 56.8578 343.45 56.8578C343.36 56.8578 343.08 56.8279 342.72 56.7979C341.8 56.7279 341.8 56.7278 341.59 56.7278C340.89 56.7278 340.521 57.0578 340.521 57.6378C340.521 58.1378 340.86 58.4678 341.44 58.4678C341.59 58.4678 341.83 58.4378 342.08 58.4078C342.53 58.3078 343.021 58.2778 343.301 58.2778C344.801 58.2778 345.83 59.6278 345.83 61.6078C345.83 63.1378 345.471 64.6078 344.771 65.8278C343.811 67.5478 342.34 68.3878 340.25 68.3878C338.47 68.3878 336.921 67.4778 336.921 66.4678C336.921 66.1078 337.061 65.9778 337.561 65.7678C338.501 65.3378 338.87 64.7678 338.87 63.9078C338.87 62.7778 337.98 61.9178 336.83 61.9178C335.45 61.9178 334.561 63.0178 334.561 64.6678C334.561 67.7778 336.921 69.7278 340.771 69.7278C345.591 69.7278 349.281 66.4978 349.281 62.1978C349.281 61.0578 348.92 60.0578 348.25 59.2678C347.55 58.4378 346.91 58.0478 345.5 57.6078Z" fill="white"/>
<path d="M96.1963 235.998L175.2 245.998" stroke="white" stroke-width="2.16" stroke-linecap="square" stroke-linejoin="bevel"/>
<path d="M96.1963 235.998L175.2 225.998" stroke="white" stroke-width="2.16" stroke-linecap="square" stroke-linejoin="bevel"/>
<path d="M193.63 258.648L339.63 248.648" stroke="white" stroke-width="2.16" stroke-linecap="square" stroke-linejoin="bevel"/>
<path d="M193.63 238.648L339.63 248.648" stroke="white" stroke-width="2.16" stroke-linecap="square" stroke-linejoin="bevel"/>
<path d="M833.561 235.838L1285.56 245.838" stroke="white" stroke-width="2.16" stroke-linecap="square" stroke-linejoin="bevel"/>
<path d="M833.561 235.838L1285.56 225.838" stroke="white" stroke-width="2.16" stroke-linecap="square" stroke-linejoin="bevel"/>
</svg>
